<svg xmlns="http://www.w3.org/2000/svg" xmlns:xlink="http://www.w3.org/1999/xlink" width="1920" zoomAndPan="magnify" viewBox="0 0 1440 449.999984" height="600" preserveAspectRatio="xMidYMid meet" version="1.0"><defs><g/><clipPath id="3cbbe569cd"><path d="M 0 12 L 464 12 L 464 438.542969 L 0 438.542969 Z M 0 12 " clip-rule="nonzero"/></clipPath><clipPath id="3f053ffa64"><path d="M 362.917969 60.65625 C 362.917969 60.65625 361.234375 216.988281 344.605469 270.347656 C 344.605469 270.347656 344.605469 270.675781 344.605469 270.863281 C 335.800781 301.390625 307.933594 331.164062 268.496094 347.625 C 209.855469 372.101562 148.074219 357.800781 130.558594 315.738281 C 113.039062 273.679688 146.386719 219.707031 205.078125 195.230469 C 253.976562 174.738281 305.027344 181.539062 330.835938 208.96875 C 335.144531 141.023438 327.277344 64.078125 320.015625 12.027344 L 43.953125 80.207031 C 9.433594 89.585938 -2.882812 111.8125 1.472656 142.007812 L 43.859375 369.148438 C 43.867188 370.660156 43.945312 372.171875 44.097656 373.679688 C 44.25 375.1875 44.472656 376.683594 44.773438 378.167969 C 45.070312 379.65625 45.441406 381.121094 45.882812 382.570312 C 46.324219 384.019531 46.835938 385.445312 47.417969 386.84375 C 47.996094 388.242188 48.644531 389.609375 49.359375 390.945312 C 50.074219 392.28125 50.851562 393.578125 51.691406 394.835938 C 52.535156 396.097656 53.433594 397.3125 54.394531 398.484375 C 55.355469 399.65625 56.371094 400.777344 57.4375 401.847656 C 58.507812 402.921875 59.628906 403.9375 60.796875 404.898438 C 61.964844 405.863281 63.179688 406.765625 64.4375 407.609375 C 65.691406 408.453125 66.988281 409.230469 68.320312 409.949219 C 69.65625 410.664062 71.019531 411.316406 72.417969 411.898438 C 73.8125 412.480469 75.234375 412.992188 76.683594 413.4375 C 78.128906 413.882812 79.59375 414.253906 81.078125 414.554688 C 82.5625 414.855469 84.054688 415.082031 85.5625 415.234375 C 87.066406 415.386719 88.578125 415.46875 90.089844 415.476562 L 382.824219 438.496094 C 384.339844 438.492188 385.847656 438.414062 387.355469 438.261719 C 388.859375 438.109375 390.355469 437.882812 391.839844 437.585938 C 393.320312 437.289062 394.789062 436.917969 396.234375 436.472656 C 397.683594 436.03125 399.105469 435.519531 400.5 434.9375 C 401.898438 434.355469 403.265625 433.707031 404.597656 432.992188 C 405.933594 432.277344 407.230469 431.5 408.488281 430.65625 C 409.746094 429.816406 410.960938 428.914062 412.128906 427.953125 C 413.300781 426.992188 414.417969 425.976562 415.488281 424.90625 C 416.558594 423.832031 417.578125 422.714844 418.539062 421.542969 C 419.5 420.371094 420.402344 419.160156 421.242188 417.898438 C 422.085938 416.640625 422.863281 415.34375 423.582031 414.007812 C 424.296875 412.675781 424.945312 411.308594 425.527344 409.910156 C 426.109375 408.511719 426.621094 407.085938 427.066406 405.640625 C 427.507812 404.191406 427.882812 402.722656 428.179688 401.238281 C 428.480469 399.753906 428.707031 398.257812 428.863281 396.75 C 429.015625 395.242188 429.09375 393.730469 429.101562 392.21875 L 463.667969 34.160156 C 463.667969 32.378906 463.667969 30.597656 463.433594 28.863281 C 435.800781 46.492188 362.917969 60.65625 362.917969 60.65625 Z M 362.917969 60.65625 " clip-rule="nonzero"/></clipPath></defs><g clip-path="url(#3cbbe569cd)"><g clip-path="url(#3f053ffa64)"><path fill="#ffffff" d="M 0 12.027344 L 0 438.496094 L 463.667969 438.496094 L 463.667969 12.027344 Z M 0 12.027344 " fill-opacity="1" fill-rule="nonzero"/></g></g><g fill="#ffffff" fill-opacity="1"><g transform="translate(498.238919, 336.754228)"><g><path d="M 55.40625 -6.765625 L 55.40625 -203.578125 L 15.140625 -203.578125 C 9.984375 -203.796875 6.65625 -205.191406 5.15625 -207.765625 C 3.21875 -210.773438 2.25 -216.144531 2.25 -223.875 C 2.25 -236.113281 5.898438 -242.234375 13.203125 -242.234375 L 130.453125 -242.234375 C 142.910156 -242.234375 149.140625 -238.90625 149.140625 -232.25 C 149.140625 -213.132812 143.988281 -203.578125 133.6875 -203.578125 L 97.609375 -203.90625 L 100.5 -138.515625 L 100.828125 -7.40625 C 100.828125 -3.320312 100.71875 -0.640625 100.5 0.640625 C 99.644531 3.648438 95.457031 5.15625 87.9375 5.15625 C 66.25 5.15625 55.40625 1.179688 55.40625 -6.765625 Z M 55.40625 -6.765625 "/></g></g></g><g fill="#ffffff" fill-opacity="1"><g transform="translate(664.136805, 336.754228)"><g><path d="M 88.265625 -9.984375 C 77.097656 0.109375 67.164062 5.15625 58.46875 5.15625 C 49.769531 5.15625 42.734375 4.5625 37.359375 3.375 C 31.992188 2.195312 27.160156 -0.375 22.859375 -4.34375 C 18.566406 -8.320312 15.5625 -14.066406 13.84375 -21.578125 C 12.132812 -29.097656 11.28125 -39.085938 11.28125 -51.546875 C 11.28125 -68.929688 19.757812 -80.847656 36.71875 -87.296875 L 82.78125 -99.21875 C 82.570312 -113.175781 81.175781 -122.191406 78.59375 -126.265625 C 76.019531 -130.347656 70.4375 -132.390625 61.84375 -132.390625 C 53.257812 -132.390625 45.851562 -130.992188 39.625 -128.203125 L 28.34375 -123.703125 L 28.03125 -123.703125 C 26.09375 -122.617188 24.375 -123.472656 22.875 -126.265625 C 19.007812 -134.429688 17.078125 -140.820312 17.078125 -145.4375 C 17.078125 -150.050781 17.453125 -152.625 18.203125 -153.15625 C 18.953125 -153.695312 19.328125 -154.078125 19.328125 -154.296875 C 30.066406 -161.378906 43.972656 -164.921875 61.046875 -164.921875 C 78.117188 -164.921875 91.269531 -162.664062 100.5 -158.15625 C 109.738281 -153.65625 116.453125 -145.441406 120.640625 -133.515625 C 124.828125 -121.597656 126.921875 -103.9375 126.921875 -80.53125 L 126.265625 0 C 126.265625 1.289062 126.050781 2.148438 125.625 2.578125 C 124.769531 4.296875 120.691406 5.15625 113.390625 5.15625 C 100.078125 5.15625 93.421875 3.4375 93.421875 0 Z M 47.03125 -50.890625 C 47.03125 -35.429688 51.539062 -27.273438 60.5625 -26.421875 C 66.789062 -26.421875 71.300781 -27.492188 74.09375 -29.640625 C 80.101562 -33.710938 83.109375 -48.957031 83.109375 -75.375 C 71.941406 -73.875 63.132812 -70.8125 56.6875 -66.1875 C 50.25 -61.570312 47.03125 -56.472656 47.03125 -50.890625 Z M 47.03125 -50.890625 "/></g></g></g><g fill="#ffffff" fill-opacity="1"><g transform="translate(818.760039, 336.754228)"><g><path d="M 118.21875 -210.671875 C 111.988281 -213.460938 104.472656 -214.859375 95.671875 -214.859375 C 86.867188 -214.859375 81.175781 -210.773438 78.59375 -202.609375 C 76.019531 -194.453125 74.734375 -180.175781 74.734375 -159.78125 L 105.65625 -159.78125 C 109.09375 -159.78125 110.8125 -155.484375 110.8125 -146.890625 C 110.8125 -138.296875 109.09375 -134 105.65625 -134 L 77.3125 -134 L 77.3125 72.15625 C 77.3125 73.445312 77.097656 74.304688 76.671875 74.734375 C 75.804688 76.453125 71.773438 77.3125 64.578125 77.3125 C 57.390625 77.3125 50.144531 76.773438 42.84375 75.703125 C 35.539062 74.628906 31.890625 73.445312 31.890625 72.15625 L 31.890625 -134 L 6.125 -134 C 3.539062 -134 2.085938 -134.585938 1.765625 -135.765625 C 1.441406 -136.953125 1.28125 -138.296875 1.28125 -139.796875 C 1.28125 -149.035156 2.894531 -153.976562 6.125 -154.625 L 31.890625 -159.78125 C 31.890625 -194.351562 36.453125 -217.597656 45.578125 -229.515625 C 54.703125 -241.429688 72.363281 -247.390625 98.5625 -247.390625 C 115.53125 -247.390625 128.847656 -243.738281 138.515625 -236.4375 L 138.828125 -236.4375 C 140.765625 -235.363281 141.734375 -233.484375 141.734375 -230.796875 C 141.734375 -228.117188 141.300781 -225.0625 140.4375 -221.625 C 139.582031 -218.1875 138.5625 -215.070312 137.375 -212.28125 C 136.195312 -209.488281 135.070312 -207.554688 134 -206.484375 C 132.925781 -205.410156 132.015625 -204.976562 131.265625 -205.1875 C 130.515625 -205.40625 130.140625 -205.625 130.140625 -205.84375 Z M 118.21875 -210.671875 "/></g></g></g><g fill="#ffffff" fill-opacity="1"><g transform="translate(952.122682, 336.754228)"><g><path d="M 104.046875 -121.765625 L 102.109375 -122.40625 L 89.875 -128.53125 C 80.632812 -132.175781 72.6875 -134 66.03125 -134 C 56.375 -133.570312 51.546875 -128.957031 51.546875 -120.15625 C 51.546875 -116.71875 53.421875 -113.925781 57.171875 -111.78125 C 60.929688 -109.632812 63.992188 -107.96875 66.359375 -106.78125 C 68.722656 -105.601562 72.160156 -103.941406 76.671875 -101.796875 C 92.773438 -94.921875 104.742188 -87.296875 112.578125 -78.921875 C 120.421875 -70.546875 124.34375 -62.273438 124.34375 -54.109375 C 124.34375 -36.285156 119.617188 -21.953125 110.171875 -11.109375 C 100.722656 -0.265625 87.890625 5.15625 71.671875 5.15625 C 55.460938 5.15625 42.738281 3.007812 33.5 -1.28125 C 24.269531 -5.582031 16.539062 -11.707031 10.3125 -19.65625 C 9.445312 -20.082031 9.015625 -20.722656 9.015625 -21.578125 C 9.015625 -22.441406 9.175781 -23.515625 9.5 -24.796875 C 9.820312 -26.085938 12.34375 -29.578125 17.0625 -35.265625 C 21.789062 -40.960938 25.550781 -43.8125 28.34375 -43.8125 C 29.207031 -43.8125 30.066406 -43.378906 30.921875 -42.515625 C 42.304688 -33.492188 53.367188 -28.984375 64.109375 -28.984375 C 70.117188 -28.984375 74.625 -30.703125 77.625 -34.140625 C 80.632812 -37.578125 82.140625 -41.335938 82.140625 -45.421875 C 82.140625 -49.503906 80.421875 -52.832031 76.984375 -55.40625 C 73.546875 -57.976562 69.300781 -60.5 64.25 -62.96875 C 59.207031 -65.445312 56.472656 -66.789062 56.046875 -67 C 55.617188 -67.21875 55.03125 -67.539062 54.28125 -67.96875 C 53.53125 -68.394531 52.832031 -68.71875 52.1875 -68.9375 C 41.226562 -74.300781 31.9375 -81.007812 24.3125 -89.0625 C 16.695312 -97.113281 12.890625 -106.082031 12.890625 -115.96875 C 12.890625 -133.144531 17.34375 -145.597656 26.25 -153.328125 C 35.164062 -161.054688 49.285156 -164.921875 68.609375 -164.921875 C 75.910156 -164.921875 82.890625 -164.0625 89.546875 -162.34375 C 98.566406 -159.988281 105.007812 -157.195312 108.875 -153.96875 L 109.203125 -153.96875 C 110.921875 -152.894531 111.941406 -151.609375 112.265625 -150.109375 C 112.585938 -148.609375 112.425781 -145.390625 111.78125 -140.453125 C 109.632812 -127.992188 107.054688 -121.765625 104.046875 -121.765625 Z M 104.046875 -121.765625 "/></g></g></g><g fill="#ffffff" fill-opacity="1"><g transform="translate(1100.303291, 336.754228)"><g><path d="M 11.921875 -80.53125 C 11.921875 -103.9375 13.957031 -121.648438 18.03125 -133.671875 C 22.113281 -145.703125 28.554688 -153.914062 37.359375 -158.3125 C 46.171875 -162.71875 59.164062 -164.921875 76.34375 -164.921875 C 93.519531 -164.921875 106.507812 -162.71875 115.3125 -158.3125 C 124.125 -153.914062 130.566406 -145.703125 134.640625 -133.671875 C 138.722656 -121.648438 140.765625 -103.9375 140.765625 -80.53125 C 140.765625 -48.320312 136.144531 -25.988281 126.90625 -13.53125 C 117.675781 -1.070312 100.820312 5.15625 76.34375 5.15625 C 51.863281 5.15625 35.003906 -1.070312 25.765625 -13.53125 C 16.535156 -25.988281 11.921875 -48.320312 11.921875 -80.53125 Z M 55.734375 -80.53125 C 55.734375 -44.457031 59.164062 -26.421875 66.03125 -26.421875 C 75.476562 -26.421875 82.457031 -27.921875 86.96875 -30.921875 C 89.332031 -32.640625 90.945312 -35.753906 91.8125 -40.265625 C 93.519531 -49.285156 94.375 -62.707031 94.375 -80.53125 C 94.375 -116.175781 90.941406 -134 84.078125 -134 C 71.191406 -134 63.242188 -131.046875 60.234375 -125.140625 C 57.234375 -119.234375 55.734375 -104.363281 55.734375 -80.53125 Z M 55.734375 -80.53125 "/></g></g></g><g fill="#ffffff" fill-opacity="1"><g transform="translate(1267.489649, 336.754228)"><g><path d="M 97.28125 -164.921875 C 113.175781 -164.921875 124.828125 -159.984375 132.234375 -150.109375 C 139.640625 -140.234375 143.34375 -122.835938 143.34375 -97.921875 L 143.34375 0 C 143.34375 1.289062 143.238281 2.148438 143.03125 2.578125 C 141.945312 4.296875 137.804688 5.15625 130.609375 5.15625 C 123.421875 5.15625 116.066406 4.617188 108.546875 3.546875 C 101.035156 2.472656 97.28125 1.289062 97.28125 0 L 96.953125 -97.921875 C 96.953125 -121.972656 95.238281 -134 91.8125 -134 C 84.070312 -134 73.757812 -130.132812 60.875 -122.40625 L 60.875 0 C 60.875 1.289062 60.769531 2.148438 60.5625 2.578125 C 59.488281 4.296875 55.351562 5.15625 48.15625 5.15625 C 40.957031 5.15625 33.546875 4.617188 25.921875 3.546875 C 18.304688 2.472656 14.5 1.289062 14.5 0 L 14.5 -159.78125 C 14.5 -163.207031 18.789062 -164.921875 27.375 -164.921875 C 40.90625 -164.921875 48.640625 -163.207031 50.578125 -159.78125 C 50.578125 -159.34375 50.679688 -159.125 50.890625 -159.125 L 57.015625 -146.890625 C 75.054688 -158.910156 88.476562 -164.921875 97.28125 -164.921875 Z M 97.28125 -164.921875 "/></g></g></g></svg>